<svg id="Layer_1" data-name="Layer 1" xmlns="http://www.w3.org/2000/svg" viewBox="0 0 139.95 139.29">
    <defs>
        <style>.cls-1{fill:#fff;}</style>
    </defs>
    <title>logo</title>
    <path class="cls-1"
          d="M32.4,63.59c3.37,3.81,6.41,7.27,9.48,10.7,5.21,5.83,7.1,5.89,12.42.36C58.78,70,63.22,65.3,68.15,60.12c5.3,8.25,10.29,16,15.27,23.8.81,1.26,1.61,2.53,2.43,3.78,4.09,6.27,8.41,6.17,11.77-.41,8.1-15.82,16.11-31.69,24.17-47.53,1-2,2.14-4,3.51-6.61,8,13.31,11.09,27.15,9.36,41.7-3.48,29.26-23,51.65-51.72,58.42-24.06,5.67-45.41-.79-63.23-18.1A5.07,5.07,0,0,1,18.48,111C22.94,95.4,27.59,79.85,32.4,63.59Z"/>
    <path class="cls-1"
          d="M9.6,102.62C2.07,88.45-1.62,74.67.67,59.55c4.51-29.73,21.32-49.11,50-57,24.72-6.79,46.63.12,65,18,1,1,2,3.43,1.47,4.46-8.37,16.91-17,33.7-25.9,51.21l-16-24.81c-4.29-6.67-6.64-6.81-12.29-1.25-4.86,4.77-10,9.27-15.39,14.25-3.74-4.21-8.06-9.17-12.49-14-4.72-5.19-8.78-4.31-10.75,2.41-4.53,15.42-8.95,30.88-13.43,46.32C10.66,99.87,10.33,100.61,9.6,102.62Z"/>
</svg>