<svg xmlns="http://www.w3.org/2000/svg" viewBox="0 0 287 356"><defs><style>.cls-1{fill:#3ecc9a;}.cls-2{fill:none;stroke:#3ecc9a;stroke-miterlimit:10;stroke-width:5px;}</style></defs><title>Asset 2</title><g id="Layer_2"><g id="Layer_1-2"><path class="cls-1" d="M260.24,5A21.78,21.78,0,0,1,282,26.76V329.24A21.78,21.78,0,0,1,260.24,351H28.52A21.83,21.83,0,0,1,6.76,329.44L5,137.78,115,5H260.24m0-5H112.66L0,136,1.76,329.48A26.75,26.75,0,0,0,28.52,356H260.24A26.76,26.76,0,0,0,287,329.24V26.76A26.76,26.76,0,0,0,260.24,0Z"/><line class="cls-2" x1="37" y1="144" x2="250" y2="144"/><line class="cls-2" x1="92.75" y1="96.5" x2="249.25" y2="96.5"/><line class="cls-2" x1="37.25" y1="191.5" x2="250.25" y2="191.5"/><line class="cls-2" x1="37.25" y1="239" x2="250.25" y2="239"/><line class="cls-2" x1="37.25" y1="286.5" x2="250.25" y2="286.5"/></g></g></svg>